<svg aria-hidden="true" style="position: absolute; width: 0; height: 0; overflow: hidden;" version="1.1" xmlns="http://www.w3.org/2000/svg" xmlns:xlink="http://www.w3.org/1999/xlink">
<defs>
<symbol id="icon-triangle-left" viewBox="0 0 20 20">
<title>triangle-left</title>
<path d="M14 5v10l-9-5 9-5z"></path>
</symbol>
<symbol id="icon-user" viewBox="0 0 32 32">
<path fill="#546a79" style="fill: var(--color1, #546a79)" d="M28.536 29.856c0 0 0 0.726 0 1.649h-25.072c0-0.924 0-1.649 0-1.649s0.059-3.609 6.268-5.608c0 0 2.25-1.174 2.969-1.979 0 0 1.359 1.649 3.299 1.649s3.299-1.649 3.299-1.649c0.719 0.805 2.969 1.979 2.969 1.979 6.248 1.979 6.268 5.608 6.268 5.608z"></path>
<path fill="#ffd7a3" style="fill: var(--color2, #ffd7a3)" d="M23.258 11.052c1.095 0 1.979 0.409 1.979 1.32 0 0.845-1.042 1.821-2.065 1.96 0.059-0.422 0.086-0.858 0.086-1.3v-1.979z"></path>
<path fill="#ffe1b2" style="fill: var(--color3, #ffe1b2)" d="M23.172 14.331c-0.356 2.58-1.755 4.744-3.873 5.839-0.963 0.501-2.072 0.779-3.299 0.779s-2.336-0.277-3.299-0.779c-2.118-1.095-3.517-3.259-3.873-5.839-0.059-0.422-0.086-0.858-0.086-1.3v-3.629c0 0 3.919-0.435 6.598-2.639 0 0 4.678 3.299 7.918 3.299v2.969c0 0.442-0.026 0.878-0.086 1.3z"></path>
<path fill="#a97c50" style="fill: var(--color4, #a97c50)" d="M15.34 6.763c-2.679 2.204-6.598 2.639-6.598 2.639v-4.619c0 0 2.309-4.289 7.258-4.289s7.258 4.289 7.258 4.289v5.278c-3.24 0-7.918-3.299-7.918-3.299z"></path>
<path fill="#ffd7a3" style="fill: var(--color2, #ffd7a3)" d="M19.299 20.17v2.098c0 0-1.359 1.649-3.299 1.649s-3.299-1.649-3.299-1.649v-2.098c0.963 0.501 2.072 0.779 3.299 0.779s2.336-0.277 3.299-0.779z"></path>
<path fill="#ffd7a3" style="fill: var(--color2, #ffd7a3)" d="M8.742 13.031c0 0.442 0.026 0.878 0.086 1.3-1.023-0.139-2.065-1.115-2.065-1.96 0-0.911 0.884-1.32 1.979-1.32v1.979z"></path>
<path fill="#231f20" style="fill: var(--color5, #231f20)" d="M22.459 23.789c-0.589-0.311-2.040-1.133-2.666-1.723v-1.603c2.005-1.146 3.376-3.203 3.814-5.72 1.136-0.325 2.124-1.391 2.124-2.372 0-0.993-0.746-1.651-1.979-1.788v-5.925l-0.059-0.11c-0.025-0.047-0.633-1.161-1.879-2.278-1.657-1.486-3.668-2.271-5.815-2.271s-4.158 0.785-5.815 2.271c-1.246 1.117-1.853 2.231-1.879 2.278l-0.059 0.11v5.925c-1.233 0.136-1.979 0.795-1.979 1.788 0 0.981 0.989 2.046 2.124 2.372 0.438 2.518 1.81 4.575 3.814 5.72v1.603c-0.626 0.59-2.078 1.413-2.667 1.723-6.432 2.087-6.568 5.896-6.57 6.058l-0 2.152h26.062v-2.147c-0.001-0.163-0.096-3.996-6.572-6.064zM15.803 23.415c-1.289-0.087-2.283-1.003-2.607-1.339v-1.141c0.87 0.337 1.809 0.508 2.804 0.508s1.935-0.171 2.804-0.508v1.142c-0.322 0.337-1.31 1.251-2.607 1.338l-0.395-0zM24.742 12.371c0 0.404-0.437 0.954-1.007 1.258 0.011-0.196 0.018-2.051 0.018-2.051 0.882 0.124 0.99 0.58 0.99 0.793zM10.872 2.984c1.488-1.323 3.213-1.994 5.128-1.994s3.64 0.671 5.128 1.994c0.921 0.819 1.464 1.65 1.635 1.933v4.624c-2.932-0.293-6.864-2.992-7.124-3.173-0.136-0.112-1.395-1.157-2.217-2.218l-0.782 0.606c0.608 0.784 1.41 1.539 1.914 1.984-1.893 1.342-4.262 1.893-5.316 2.083v-3.907c0.172-0.284 0.715-1.114 1.635-1.933zM7.258 12.371c0-0.213 0.108-0.669 0.99-0.793 0 0 0.007 1.856 0.018 2.051-0.57-0.304-1.007-0.854-1.007-1.258zM9.318 14.262c-0.054-0.382-0.081-0.796-0.081-1.231v-3.2c1.079-0.177 3.907-0.776 6.124-2.455 1.054 0.703 4.566 2.914 7.401 3.158v2.496c0 0.435-0.027 0.849-0.081 1.232-0.34 2.464-1.656 4.457-3.611 5.468-0.921 0.479-1.954 0.723-3.071 0.723s-2.149-0.243-3.072-0.723c-1.954-1.010-3.27-3.003-3.61-5.468zM28.041 31.010h-24.082v-1.146c0.003-0.058 0.060-0.854 0.764-1.848 1.24-1.752 3.491-2.76 5.161-3.298 0 0 1.878-0.982 2.801-1.755 0.433 0.408 1.227 1.031 2.262 1.308l-2.595 2.595 0.7 0.7 2.949-2.949 2.949 2.949 0.7-0.7-2.595-2.595c1.035-0.277 1.829-0.9 2.262-1.308 0.923 0.773 2.803 1.756 2.803 1.756 1.68 0.532 3.94 1.534 5.173 3.288 0.707 1.006 0.748 1.812 0.75 1.854v1.149h0z"></path>
<path fill="#231f20" style="fill: var(--color5, #231f20)" d="M15.34 26.722h1.32v0.99h-1.32v-0.99z"></path>
<path fill="#231f20" style="fill: var(--color5, #231f20)" d="M15.34 28.701h1.32v0.99h-1.32v-0.99z"></path>
<path fill="#231f20" style="fill: var(--color5, #231f20)" d="M16 15.505h1.32v-0.99h-0.825v-2.144h-0.99v2.639c0 0.273 0.222 0.495 0.495 0.495z"></path>
</symbol>

  <symbol xmlns="http://www.w3.org/2000/svg" viewBox="0 0 512 512" id="icon-password">
    <path d="M437.333 192h-32v-42.667C405.333 66.99 338.344 0 256 0S106.667 66.99 106.667 149.333V192h-32A10.66 10.66 0 0 0 64 202.667v266.667C64 492.865 83.135 512 106.667 512h298.667C428.865 512 448 492.865 448 469.333V202.667A10.66 10.66 0 0 0 437.333 192zm-96 0H170.667v-42.667C170.667 102.281 208.948 64 256 64s85.333 38.281 85.333 85.333V192z"
      fill="#303c42"></path>
    <path d="M128 149.333c0-70.583 57.417-128 128-128s128 57.417 128 128V192h-21.333v-42.667c0-58.813-47.854-106.667-106.667-106.667S149.333 90.521 149.333 149.333V192H128v-42.667z" fill="#f2f2f2"></path>
    <path d="M426.667 469.333c0 11.76-9.573 21.333-21.333 21.333H106.667c-11.76 0-21.333-9.573-21.333-21.333v-256h341.333v256z" fill="#ffca28"></path>
    <path d="M128 469.333v-256H85.333v256c0 11.76 9.573 21.333 21.333 21.333H144c-8.82.001-16-9.572-16-21.333z" opacity=".2" fill="#fff"></path>
    <path d="M384 213.333v256c0 11.76-7.18 21.333-16 21.333h37.333c11.76 0 21.333-9.573 21.333-21.333v-256H384z" opacity=".1"></path>
    <path d="M230.792 354.313l-6.729 60.51a10.67 10.67 0 0 0 10.604 11.844h42.667a10.67 10.67 0 0 0 10.604-11.844l-6.729-60.51c10.927-7.948 17.458-20.521 17.458-34.313 0-23.531-19.135-42.667-42.667-42.667S213.333 296.469 213.333 320c0 13.792 6.532 26.365 17.459 34.313z"
      fill="#303c42"></path>
    <path d="M256 298.667c11.76 0 21.333 9.573 21.333 21.333 0 8.177-4.646 15.5-12.125 19.125a10.673 10.673 0 0 0-5.958 10.781l6.167 55.427h-18.833l6.167-55.427c.5-4.49-1.885-8.802-5.958-10.781-7.479-3.625-12.125-10.948-12.125-19.125-.001-11.76 9.572-21.333 21.332-21.333z"
      fill="#5c6671"></path>
    <path d="M247.716 340.001c-1.434-2.866-2.383-5.987-2.383-9.335 0-11.76 9.573-21.333 21.333-21.333 3.12 0 6.034.749 8.708 1.958-3.349-7.406-10.734-12.625-19.375-12.625-11.76 0-21.333 9.573-21.333 21.333 0 8.177 4.646 15.5 12.125 19.125.402.196.558.639.925.877zm14.211 33.964l-2.48-22.288c-.701-.608-1.125-1.466-1.988-1.885-2.096-1.016-3.9-2.376-5.512-3.911.385 1.323.962 2.599.803 4.026l-6.167 55.427h11.853l3.491-31.369z"
      opacity=".1"></path>
    <linearGradient id="a" gradientUnits="userSpaceOnUse" x1="-43.622" y1="637.269" x2="-23.837" y2="628.043" gradientTransform="matrix(21.3333 0 0 -21.3333 996.333 13791.667)">
      <stop offset="0" stop-color="#fff" stop-opacity=".2"></stop>
      <stop offset="1" stop-color="#fff" stop-opacity="0"></stop>
    </linearGradient>
    <path d="M437.333 192h-32v-42.667C405.333 66.99 338.344 0 256 0S106.667 66.99 106.667 149.333V192h-32A10.66 10.66 0 0 0 64 202.667v266.667C64 492.865 83.135 512 106.667 512h298.667C428.865 512 448 492.865 448 469.333V202.667A10.66 10.66 0 0 0 437.333 192zm-96 0H170.667v-42.667C170.667 102.281 208.948 64 256 64s85.333 38.281 85.333 85.333V192z"
      fill="url(#a)"></path>
  </symbol>


<symbol id="icon-triangle-right" viewBox="0 0 20 20">
<title>triangle-right</title>
<path d="M15 10l-9 5v-10l9 5z"></path>
</symbol>
<symbol id="icon-check" viewBox="0 0 20 20">
<title>check</title>
<path d="M8.294 16.998c-0.435 0-0.847-0.203-1.111-0.553l-3.573-4.721c-0.465-0.613-0.344-1.486 0.27-1.951 0.615-0.467 1.488-0.344 1.953 0.27l2.351 3.104 5.911-9.492c0.407-0.652 1.267-0.852 1.921-0.445s0.854 1.266 0.446 1.92l-6.984 11.21c-0.242 0.391-0.661 0.635-1.12 0.656-0.022 0.002-0.042 0.002-0.064 0.002z"></path>
</symbol>
<symbol id="icon-circle-with-cross" viewBox="0 0 20 20">
<title>circle-with-cross</title>
<path d="M10 1.6c-4.639 0-8.4 3.761-8.4 8.4s3.761 8.4 8.4 8.4 8.4-3.761 8.4-8.4c0-4.639-3.761-8.4-8.4-8.4zM14.789 13.061l-1.729 1.729-3.060-3.061-3.061 3.060-1.729-1.729 3.062-3.060-3.061-3.061 1.729-1.728 3.060 3.060 3.061-3.061 1.729 1.729-3.062 3.061 3.061 3.061z"></path>
</symbol>
<symbol id="icon-circle-with-minus" viewBox="0 0 20 20">
<title>circle-with-minus</title>
<path d="M10 1.6c-4.639 0-8.4 3.761-8.4 8.4s3.761 8.4 8.4 8.4 8.4-3.761 8.4-8.4c0-4.639-3.761-8.4-8.4-8.4zM15 11h-10v-2h10v2z"></path>
</symbol>
<symbol id="icon-circle-with-plus" viewBox="0 0 20 20">
<title>circle-with-plus</title>
<path d="M10 1.6c-4.639 0-8.4 3.761-8.4 8.4s3.761 8.4 8.4 8.4 8.4-3.761 8.4-8.4c0-4.639-3.761-8.4-8.4-8.4zM15 11h-4v4h-2v-4h-4v-2h4v-4h2v4h4v2z"></path>
</symbol>
<symbol id="icon-cw" viewBox="0 0 20 20">
<title>cw</title>
<path d="M19.315 10h-2.372v-0.205c-0.108-4.434-3.724-7.996-8.169-7.996-4.515 0-8.174 3.672-8.174 8.201s3.659 8.199 8.174 8.199c1.898 0 3.645-0.65 5.033-1.738l-1.406-1.504c-1.016 0.748-2.27 1.193-3.627 1.193-3.386 0-6.131-2.754-6.131-6.15s2.745-6.15 6.131-6.15c3.317 0 6.018 2.643 6.125 5.945v0.205h-2.672l3.494 3.894 3.594-3.894z"></path>
</symbol>
<symbol id="icon-heart-outlined" viewBox="0 0 20 20">
<title>heart-outlined</title>
<path d="M17.19 4.156c-1.672-1.535-4.383-1.535-6.055 0l-1.135 1.041-1.136-1.041c-1.672-1.535-4.382-1.535-6.054 0-1.881 1.726-1.881 4.519 0 6.245l7.19 6.599 7.19-6.599c1.88-1.726 1.88-4.52 0-6.245zM16.124 9.375l-6.124 5.715-6.125-5.715c-0.617-0.567-0.856-1.307-0.856-2.094s0.138-1.433 0.756-1.999c0.545-0.501 1.278-0.777 2.063-0.777s1.517 0.476 2.062 0.978l2.1 1.825 2.099-1.826c0.546-0.502 1.278-0.978 2.063-0.978s1.518 0.276 2.063 0.777c0.618 0.566 0.755 1.212 0.755 1.999s-0.238 1.528-0.856 2.095z"></path>
</symbol>
<symbol id="icon-heart" viewBox="0 0 20 20">
<title>heart</title>
<path d="M17.19 4.155c-1.672-1.534-4.383-1.534-6.055 0l-1.135 1.042-1.136-1.042c-1.672-1.534-4.382-1.534-6.054 0-1.881 1.727-1.881 4.52 0 6.246l7.19 6.599 7.19-6.599c1.88-1.726 1.88-4.52 0-6.246z"></path>
</symbol>
<symbol id="icon-magnifying-glass" viewBox="0 0 20 20">
<title>magnifying-glass</title>
<path d="M17.545 15.467l-3.779-3.779c0.57-0.935 0.898-2.035 0.898-3.21 0-3.417-2.961-6.377-6.378-6.377s-6.186 2.769-6.186 6.186c0 3.416 2.961 6.377 6.377 6.377 1.137 0 2.2-0.309 3.115-0.844l3.799 3.801c0.372 0.371 0.975 0.371 1.346 0l0.943-0.943c0.371-0.371 0.236-0.84-0.135-1.211zM4.004 8.287c0-2.366 1.917-4.283 4.282-4.283s4.474 2.107 4.474 4.474c0 2.365-1.918 4.283-4.283 4.283s-4.473-2.109-4.473-4.474z"></path>
</symbol>
<symbol id="icon-man" viewBox="0 0 20 20">
<title>man</title>
<path d="M10 4c1.104 0 2-0.896 2-2s-0.896-2-2-2-2 0.895-2 2c0 1.104 0.896 2 2 2zM15.978 11.583c-0.385-1.775-1.058-4.688-2.042-5.894-0.957-1.173-2.885-1.222-3.936-1.222v0c-1.051 0-2.979 0.049-3.936 1.222-0.984 1.206-1.657 4.119-2.042 5.894-0.213 0.983 1.154 1.344 1.511 0.355 0.531-1.473 0.941-2.71 1.839-3.736 0.472 2.907-1.27 7.966-1.372 10.798 0 0.552 0.448 1 1 1 0.426 0 0.79-0.266 0.934-0.642 0.457-1.587 2.066-6.003 2.066-6.003v0 0c0 0 1.609 4.416 2.066 6.003 0.144 0.376 0.508 0.642 0.934 0.642 0.552 0 1-0.448 1-1-0.102-2.832-1.844-7.891-1.372-10.797 0.898 1.026 1.308 2.263 1.839 3.736 0.356 0.988 1.724 0.627 1.511-0.356z"></path>
</symbol>
<symbol id="icon-shopping-cart" viewBox="0 0 20 20">
<title>shopping-cart</title>
<path d="M13 17c0 1.104 0.894 2 2 2 1.104 0 2-0.896 2-2 0-1.106-0.896-2-2-2-1.106 0-2 0.894-2 2zM3 17c0 1.104 0.895 2 2 2 1.103 0 2-0.896 2-2 0-1.106-0.897-2-2-2-1.105 0-2 0.894-2 2zM6.547 12.172l11.068-3.162c0.211-0.061 0.385-0.289 0.385-0.51v-5.5h-14v-1.6c0-0.22-0.181-0.4-0.399-0.4h-3.202c-0.219 0-0.399 0.18-0.399 0.4v1.6h2l1.91 8.957 0.090 0.943v1.649c0 0.219 0.18 0.4 0.4 0.4h13.2c0.22 0 0.4-0.182 0.4-0.4v-1.549h-11.248c-1.15 0-1.174-0.551-0.205-0.828z"></path>
</symbol>
<symbol id="icon-squared-cross" viewBox="0 0 20 20">
<title>squared-cross</title>
<path d="M16 2h-12c-1.1 0-2 0.9-2 2v12c0 1.1 0.9 2 2 2h12c1.1 0 2-0.9 2-2v-12c0-1.1-0.9-2-2-2zM13.061 14.789l-3.061-3.060-3.061 3.060-1.729-1.728 3.061-3.061-3.060-3.061 1.729-1.729 3.060 3.061 3.059-3.061 1.729 1.729-3.059 3.061 3.060 3.061-1.728 1.728z"></path>
</symbol>
<symbol id="icon-stopwatch" viewBox="0 0 20 20">
<title>stopwatch</title>
<path d="M7.376 6.745c-0.447 0.275 1.197 4.242 1.598 4.888 0.35 0.569 1.093 0.742 1.658 0.394 0.568-0.352 0.745-1.094 0.395-1.66-0.397-0.648-3.205-3.898-3.651-3.622zM7.041 2.402c0.928-0.323 1.922-0.502 2.959-0.502s2.031 0.179 2.959 0.502c0.329 0.114 0.765-0.115 0.572-0.611-0.141-0.36-0.277-0.712-0.332-0.855-0.131-0.339-0.6-0.619-0.804-0.665-0.772-0.174-1.572-0.271-2.395-0.271s-1.623 0.097-2.396 0.271c-0.204 0.046-0.672 0.326-0.803 0.665-0.055 0.143-0.192 0.495-0.332 0.855-0.193 0.496 0.243 0.726 0.572 0.611zM19.098 3.186c-0.192-0.23-0.396-0.455-0.613-0.672-0.216-0.217-0.441-0.42-0.67-0.613-0.153-0.129-0.603-0.234-0.888 0.051s-1.648 1.647-1.648 1.647c0.402 0.288 0.793 0.605 1.155 0.966s0.677 0.752 0.966 1.155c0 0 1.363-1.362 1.647-1.647 0.286-0.286 0.181-0.735 0.051-0.887zM10 2.9c-4.475 0-8.101 3.626-8.101 8.1s3.626 8.101 8.101 8.101c4.473 0 8.1-3.626 8.1-8.101 0-4.473-3.627-8.1-8.1-8.1zM10 17.101c-3.368 0-6.1-2.731-6.1-6.1s2.731-6.1 6.1-6.1c3.369 0 6.101 2.731 6.101 6.1s-2.732 6.1-6.101 6.1z"></path>
</symbol>
<symbol id="icon-arrow" viewBox="0 0 32 32">
<path fill="#20ac7d" style="fill: var(--color1, #20ac7d)" d="M16 0c-8.823 0-16 7.177-16 16s7.177 16 16 16 16-7.177 16-16-7.177-16-16-16z"></path>
<path fill="#28b485" style="fill: var(--color2, #28b485)" d="M16 0c-8.823 0-16 7.177-16 16s7.177 16 16 16z"></path>
<path fill="#fff" style="fill: var(--color3, #fff)" d="M14.307 25.055l-8.667-8.333c-0.196-0.189-0.307-0.449-0.307-0.721s0.111-0.532 0.307-0.721l8.667-8.333c0.633-0.611 1.693-0.159 1.693 0.721v4.333h7.667c0.919 0 1.667 0.748 1.667 1.667v4.667c0 0.919-0.748 1.667-1.667 1.667h-7.667v4.333c0 0.885-1.064 1.327-1.693 0.721z"></path>
<path fill="#e8e8e8" style="fill: var(--color4, #e8e8e8)" d="M25.333 16h-20c0 0.272 0.111 0.532 0.307 0.721l8.667 8.333c0.2 0.193 0.445 0.28 0.685 0.28 0.513-0.001 1.008-0.399 1.008-1.001v-4.333h7.667c0.919 0 1.667-0.748 1.667-1.667z"></path>
</symbol>
</defs>
</svg>
