<svg aria-hidden="true" style="position: absolute; width: 0; height: 0; overflow: hidden;" version="1.1" xmlns="http://www.w3.org/2000/svg" xmlns:xlink="http://www.w3.org/1999/xlink">
<defs>


<symbol id="icon-survey" viewBox="0 0 32 32">
<path fill="#ecce93" style="fill: var(--color1, #ecce93)" d="M2 1h22c1.105 0 2 0.895 2 2v27c0 1.105-0.895 2-2 2h-22c-1.105 0-2-0.895-2-2v-27c0-1.105 0.895-2 2-2z"></path>
<path fill="#efefef" style="fill: var(--color2, #efefef)" d="M2 23.414v-20.414h22v27h-15.414z"></path>
<path fill="#e76e54" style="fill: var(--color3, #e76e54)" d="M8.586 23.414v6.586l-6.586-6.586z"></path>
<path fill="#e76e54" style="fill: var(--color3, #e76e54)" d="M8 4v-4h10v4c0 1.104-0.895 2-2 2h-6c-1.104 0-2-0.896-2-2z"></path>
<path fill="#48c8ef" style="fill: var(--color4, #48c8ef)" d="M32 23c0 4.97-4.030 9-9 9s-9-4.030-9-9 4.030-9 9-9 9 4.030 9 9z"></path>
<path fill="#fff" style="fill: var(--color5, #fff)" d="M20.938 26.853l-1.938-1.939c-0.39-0.391-0.39-1.024 0-1.414s1.023-0.39 1.414 0l0.648 0.647 4.529-3.775c0.424-0.354 1.055-0.297 1.409 0.128s0.297 1.055-0.128 1.409z"></path>
<path fill="#77959e" style="fill: var(--color6, #77959e)" d="M11 8h8c0.552 0 1 0.448 1 1s-0.448 1-1 1h-8c-0.552 0-1-0.448-1-1s0.448-1 1-1z"></path>
<path fill="#77959e" style="fill: var(--color6, #77959e)" d="M6 8h2v2h-2z"></path>
<path fill="#77959e" style="fill: var(--color6, #77959e)" d="M6 12h2v2h-2z"></path>
<path fill="#77959e" style="fill: var(--color6, #77959e)" d="M6 16h2v2h-2z"></path>
<path fill="#77959e" style="fill: var(--color6, #77959e)" d="M6 20h2v2h-2z"></path>
<path fill="#77959e" style="fill: var(--color6, #77959e)" d="M11 12h6c0.552 0 1 0.448 1 1s-0.448 1-1 1h-6c-0.552 0-1-0.448-1-1s0.448-1 1-1z"></path>
<path fill="#77959e" style="fill: var(--color6, #77959e)" d="M11 16h2c0.552 0 1 0.448 1 1s-0.448 1-1 1h-2c-0.552 0-1-0.448-1-1s0.448-1 1-1z"></path>
</symbol>


<symbol id="icon-list" viewBox="0 0 32 32">
<path fill="#79b2ff" style="fill: var(--color1, #79b2ff)" d="M2.125 0.625h21c0.828 0 1.5 0.672 1.5 1.5v27.75c0 0.828-0.672 1.5-1.5 1.5h-21c-0.828 0-1.5-0.672-1.5-1.5v-27.75c0-0.828 0.672-1.5 1.5-1.5z"></path>
<path fill="#fff" style="fill: var(--color2, #fff)" d="M17.521 3.125h4.604v25.75h-19v-25.75h4.604z"></path>
<path fill="#ff6977" style="fill: var(--color3, #ff6977)" d="M9.255 5.125h6.739c0.734 0 1.328-0.595 1.328-1.328v-3.172h-9.396v3.172c0 0.733 0.595 1.328 1.328 1.328z"></path>
<path fill="#bdd9ff" style="fill: var(--color4, #bdd9ff)" d="M9.255 5.125h6.739c0.734 0 1.328-0.595 1.328-1.328v-3.172h-9.396v3.172c0 0.733 0.595 1.328 1.328 1.328z"></path>
<path fill="#ffc15a" style="fill: var(--color5, #ffc15a)" d="M21.23 16.285l7.323-7.323c0.645-0.646 1.692-0.646 2.338 0s0.645 1.692 0 2.338l-7.323 7.323-4.214 1.876z"></path>
<path fill="#98a1b3" style="fill: var(--color6, #98a1b3)" d="M23.568 18.623l-2.338-2.338-1.876 4.214z"></path>
<path fill="#ff6977" style="fill: var(--color3, #ff6977)" d="M30.087 12.103l0.804-0.804c0.645-0.646 0.645-1.692 0-2.338s-1.692-0.646-2.338 0l-0.804 0.803z"></path>
<path fill="#cbe558" style="fill: var(--color7, #cbe558)" d="M6.125 8.125h4v4h-4z"></path>
<path fill="#cbe558" style="fill: var(--color7, #cbe558)" d="M6.125 15h4v4h-4z"></path>
<path fill="#ff6977" style="fill: var(--color3, #ff6977)" d="M6.125 21.875h4v4h-4z"></path>
<path fill="#000" style="fill: var(--color8, #000)" d="M12.625 28.25c-0.164 0-0.326 0.067-0.442 0.183s-0.183 0.278-0.183 0.442 0.067 0.326 0.183 0.442c0.116 0.116 0.278 0.183 0.442 0.183s0.326-0.067 0.442-0.183c0.116-0.116 0.183-0.278 0.183-0.442s-0.067-0.326-0.183-0.442c-0.116-0.116-0.278-0.183-0.442-0.183z"></path>
<path fill="#000" style="fill: var(--color8, #000)" d="M31.333 8.52c-0.888-0.888-2.333-0.888-3.221 0l-2.861 2.861v-9.256c0-1.172-0.953-2.125-2.125-2.125h-21c-1.172 0-2.125 0.953-2.125 2.125v27.75c0 1.172 0.953 2.125 2.125 2.125h21c1.172 0 2.125-0.953 2.125-2.125v-12.051l6.083-6.083c0.888-0.888 0.888-2.333 0-3.221zM24 2.125v10.506l-1.25 1.25v-10.756c0-0.345-0.28-0.625-0.625-0.625h-4.177v-1.25h5.177c0.482 0 0.875 0.393 0.875 0.875zM20.587 19.265l0.844-1.895 1.052 1.052zM16.698 1.25v2.547c0 0.388-0.315 0.703-0.703 0.703h-6.74c-0.388 0-0.703-0.315-0.703-0.703v-2.547zM23.125 30.75h-21c-0.482 0-0.875-0.393-0.875-0.875v-27.75c0-0.482 0.393-0.875 0.875-0.875h5.177v1.25h-4.177c-0.345 0-0.625 0.28-0.625 0.625v25.75c0 0.345 0.28 0.625 0.625 0.625h7c0.345 0 0.625-0.28 0.625-0.625s-0.28-0.625-0.625-0.625h-6.375v-24.5h3.552v0.047c0 1.077 0.876 1.953 1.953 1.953h6.74c1.077 0 1.953-0.876 1.953-1.953v-0.047h3.552v11.381l-0.712 0.712c-0.054 0.054-0.098 0.118-0.129 0.188l-1.876 4.214c-0.105 0.237-0.054 0.513 0.129 0.696 0.12 0.12 0.28 0.183 0.442 0.183 0.086 0 0.172-0.018 0.254-0.054l1.892-0.842v8.022h-6.375c-0.345 0-0.625 0.28-0.625 0.625s0.28 0.625 0.625 0.625h7c0.345 0 0.625-0.28 0.625-0.625v-9.204l1.072-0.477c0.066-0.029 0.126-0.070 0.178-0.12v10.802c0 0.482-0.393 0.875-0.875 0.875zM28.119 13.187l-4.552 4.552-1.454-1.454 5.636-5.636 1.454 1.454zM30.449 10.858l-0.362 0.362-1.454-1.454 0.362-0.362c0.401-0.401 1.053-0.401 1.454 0s0.401 1.053 0 1.454z"></path>
<path fill="#000" style="fill: var(--color8, #000)" d="M10.125 7.5h-4c-0.345 0-0.625 0.28-0.625 0.625v4c0 0.345 0.28 0.625 0.625 0.625h4c0.345 0 0.625-0.28 0.625-0.625v-4c0-0.345-0.28-0.625-0.625-0.625zM9.5 11.5h-2.75v-2.75h2.75z"></path>
<path fill="#000" style="fill: var(--color8, #000)" d="M10.125 14.375h-4c-0.345 0-0.625 0.28-0.625 0.625v4c0 0.345 0.28 0.625 0.625 0.625h4c0.345 0 0.625-0.28 0.625-0.625v-4c0-0.345-0.28-0.625-0.625-0.625zM9.5 18.375h-2.75v-2.75h2.75z"></path>
<path fill="#000" style="fill: var(--color8, #000)" d="M10.125 21.25h-4c-0.345 0-0.625 0.28-0.625 0.625v4c0 0.345 0.28 0.625 0.625 0.625h4c0.345 0 0.625-0.28 0.625-0.625v-4c0-0.345-0.28-0.625-0.625-0.625zM9.5 25.25h-2.75v-2.75h2.75z"></path>
<path fill="#000" style="fill: var(--color8, #000)" d="M14.599 11.978c0.122 0.122 0.282 0.183 0.442 0.183s0.32-0.061 0.442-0.183l2.822-2.822c0.244-0.244 0.244-0.64 0-0.884s-0.64-0.244-0.884 0l-2.38 2.38-0.948-0.948c-0.244-0.244-0.64-0.244-0.884 0s-0.244 0.64 0 0.884z"></path>
<path fill="#000" style="fill: var(--color8, #000)" d="M14.599 18.853c0.117 0.117 0.276 0.183 0.442 0.183s0.325-0.066 0.442-0.183l2.822-2.822c0.244-0.244 0.244-0.64 0-0.884s-0.64-0.244-0.884 0l-2.38 2.38-0.948-0.948c-0.244-0.244-0.64-0.244-0.884 0s-0.244 0.64 0 0.884z"></path>
<path fill="#000" style="fill: var(--color8, #000)" d="M15.756 24.759l0.969 0.969c0.122 0.122 0.282 0.183 0.442 0.183s0.32-0.061 0.442-0.183c0.244-0.244 0.244-0.64 0-0.884l-0.969-0.969 0.969-0.969c0.244-0.244 0.244-0.64 0-0.884s-0.64-0.244-0.884 0l-0.969 0.969-0.969-0.969c-0.244-0.244-0.64-0.244-0.884 0s-0.244 0.64 0 0.884l0.969 0.969-0.969 0.969c-0.244 0.244-0.244 0.64 0 0.884 0.122 0.122 0.282 0.183 0.442 0.183s0.32-0.061 0.442-0.183z"></path>
</symbol>
<symbol id="icon-triangle-left" viewBox="0 0 20 20">
<title>triangle-left</title>
<path d="M14 5v10l-9-5 9-5z"></path>
</symbol>
<symbol id="icon-triangle-right" viewBox="0 0 20 20">
<title>triangle-right</title>
<path d="M15 10l-9 5v-10l9 5z"></path>
</symbol>
<symbol id="icon-check" viewBox="0 0 20 20">
<title>check</title>
<path d="M8.294 16.998c-0.435 0-0.847-0.203-1.111-0.553l-3.573-4.721c-0.465-0.613-0.344-1.486 0.27-1.951 0.615-0.467 1.488-0.344 1.953 0.27l2.351 3.104 5.911-9.492c0.407-0.652 1.267-0.852 1.921-0.445s0.854 1.266 0.446 1.92l-6.984 11.21c-0.242 0.391-0.661 0.635-1.12 0.656-0.022 0.002-0.042 0.002-0.064 0.002z"></path>
</symbol>
<symbol id="icon-circle-with-cross" viewBox="0 0 20 20">
<title>circle-with-cross</title>
<path d="M10 1.6c-4.639 0-8.4 3.761-8.4 8.4s3.761 8.4 8.4 8.4 8.4-3.761 8.4-8.4c0-4.639-3.761-8.4-8.4-8.4zM14.789 13.061l-1.729 1.729-3.060-3.061-3.061 3.060-1.729-1.729 3.062-3.060-3.061-3.061 1.729-1.728 3.060 3.060 3.061-3.061 1.729 1.729-3.062 3.061 3.061 3.061z"></path>
</symbol>
<symbol id="icon-circle-with-minus" viewBox="0 0 20 20">
<title>circle-with-minus</title>
<path d="M10 1.6c-4.639 0-8.4 3.761-8.4 8.4s3.761 8.4 8.4 8.4 8.4-3.761 8.4-8.4c0-4.639-3.761-8.4-8.4-8.4zM15 11h-10v-2h10v2z"></path>
</symbol>
<symbol id="icon-circle-with-plus" viewBox="0 0 20 20">
<title>circle-with-plus</title>
<path d="M10 1.6c-4.639 0-8.4 3.761-8.4 8.4s3.761 8.4 8.4 8.4 8.4-3.761 8.4-8.4c0-4.639-3.761-8.4-8.4-8.4zM15 11h-4v4h-2v-4h-4v-2h4v-4h2v4h4v2z"></path>
</symbol>
<symbol id="icon-cw" viewBox="0 0 20 20">
<title>cw</title>
<path d="M19.315 10h-2.372v-0.205c-0.108-4.434-3.724-7.996-8.169-7.996-4.515 0-8.174 3.672-8.174 8.201s3.659 8.199 8.174 8.199c1.898 0 3.645-0.65 5.033-1.738l-1.406-1.504c-1.016 0.748-2.27 1.193-3.627 1.193-3.386 0-6.131-2.754-6.131-6.15s2.745-6.15 6.131-6.15c3.317 0 6.018 2.643 6.125 5.945v0.205h-2.672l3.494 3.894 3.594-3.894z"></path>
</symbol>
<symbol id="icon-heart-outlined" viewBox="0 0 20 20">
<title>heart-outlined</title>
<path d="M17.19 4.156c-1.672-1.535-4.383-1.535-6.055 0l-1.135 1.041-1.136-1.041c-1.672-1.535-4.382-1.535-6.054 0-1.881 1.726-1.881 4.519 0 6.245l7.19 6.599 7.19-6.599c1.88-1.726 1.88-4.52 0-6.245zM16.124 9.375l-6.124 5.715-6.125-5.715c-0.617-0.567-0.856-1.307-0.856-2.094s0.138-1.433 0.756-1.999c0.545-0.501 1.278-0.777 2.063-0.777s1.517 0.476 2.062 0.978l2.1 1.825 2.099-1.826c0.546-0.502 1.278-0.978 2.063-0.978s1.518 0.276 2.063 0.777c0.618 0.566 0.755 1.212 0.755 1.999s-0.238 1.528-0.856 2.095z"></path>
</symbol>
<symbol id="icon-heart" viewBox="0 0 20 20">
<title>heart</title>
<path d="M17.19 4.155c-1.672-1.534-4.383-1.534-6.055 0l-1.135 1.042-1.136-1.042c-1.672-1.534-4.382-1.534-6.054 0-1.881 1.727-1.881 4.52 0 6.246l7.19 6.599 7.19-6.599c1.88-1.726 1.88-4.52 0-6.246z"></path>
</symbol>
<symbol id="icon-magnifying-glass" viewBox="0 0 20 20">
<title>magnifying-glass</title>
<path d="M17.545 15.467l-3.779-3.779c0.57-0.935 0.898-2.035 0.898-3.21 0-3.417-2.961-6.377-6.378-6.377s-6.186 2.769-6.186 6.186c0 3.416 2.961 6.377 6.377 6.377 1.137 0 2.2-0.309 3.115-0.844l3.799 3.801c0.372 0.371 0.975 0.371 1.346 0l0.943-0.943c0.371-0.371 0.236-0.84-0.135-1.211zM4.004 8.287c0-2.366 1.917-4.283 4.282-4.283s4.474 2.107 4.474 4.474c0 2.365-1.918 4.283-4.283 4.283s-4.473-2.109-4.473-4.474z"></path>
</symbol>
<symbol id="icon-man" viewBox="0 0 20 20">
<title>man</title>
<path d="M10 4c1.104 0 2-0.896 2-2s-0.896-2-2-2-2 0.895-2 2c0 1.104 0.896 2 2 2zM15.978 11.583c-0.385-1.775-1.058-4.688-2.042-5.894-0.957-1.173-2.885-1.222-3.936-1.222v0c-1.051 0-2.979 0.049-3.936 1.222-0.984 1.206-1.657 4.119-2.042 5.894-0.213 0.983 1.154 1.344 1.511 0.355 0.531-1.473 0.941-2.71 1.839-3.736 0.472 2.907-1.27 7.966-1.372 10.798 0 0.552 0.448 1 1 1 0.426 0 0.79-0.266 0.934-0.642 0.457-1.587 2.066-6.003 2.066-6.003v0 0c0 0 1.609 4.416 2.066 6.003 0.144 0.376 0.508 0.642 0.934 0.642 0.552 0 1-0.448 1-1-0.102-2.832-1.844-7.891-1.372-10.797 0.898 1.026 1.308 2.263 1.839 3.736 0.356 0.988 1.724 0.627 1.511-0.356z"></path>
</symbol>
<symbol id="icon-shopping-cart" viewBox="0 0 20 20">
<title>shopping-cart</title>
<path d="M13 17c0 1.104 0.894 2 2 2 1.104 0 2-0.896 2-2 0-1.106-0.896-2-2-2-1.106 0-2 0.894-2 2zM3 17c0 1.104 0.895 2 2 2 1.103 0 2-0.896 2-2 0-1.106-0.897-2-2-2-1.105 0-2 0.894-2 2zM6.547 12.172l11.068-3.162c0.211-0.061 0.385-0.289 0.385-0.51v-5.5h-14v-1.6c0-0.22-0.181-0.4-0.399-0.4h-3.202c-0.219 0-0.399 0.18-0.399 0.4v1.6h2l1.91 8.957 0.090 0.943v1.649c0 0.219 0.18 0.4 0.4 0.4h13.2c0.22 0 0.4-0.182 0.4-0.4v-1.549h-11.248c-1.15 0-1.174-0.551-0.205-0.828z"></path>
</symbol>
<symbol id="icon-squared-cross" viewBox="0 0 20 20">
<title>squared-cross</title>
<path d="M16 2h-12c-1.1 0-2 0.9-2 2v12c0 1.1 0.9 2 2 2h12c1.1 0 2-0.9 2-2v-12c0-1.1-0.9-2-2-2zM13.061 14.789l-3.061-3.060-3.061 3.060-1.729-1.728 3.061-3.061-3.060-3.061 1.729-1.729 3.060 3.061 3.059-3.061 1.729 1.729-3.059 3.061 3.060 3.061-1.728 1.728z"></path>
</symbol>
<symbol id="icon-stopwatch" viewBox="0 0 20 20">
<title>stopwatch</title>
<path d="M7.376 6.745c-0.447 0.275 1.197 4.242 1.598 4.888 0.35 0.569 1.093 0.742 1.658 0.394 0.568-0.352 0.745-1.094 0.395-1.66-0.397-0.648-3.205-3.898-3.651-3.622zM7.041 2.402c0.928-0.323 1.922-0.502 2.959-0.502s2.031 0.179 2.959 0.502c0.329 0.114 0.765-0.115 0.572-0.611-0.141-0.36-0.277-0.712-0.332-0.855-0.131-0.339-0.6-0.619-0.804-0.665-0.772-0.174-1.572-0.271-2.395-0.271s-1.623 0.097-2.396 0.271c-0.204 0.046-0.672 0.326-0.803 0.665-0.055 0.143-0.192 0.495-0.332 0.855-0.193 0.496 0.243 0.726 0.572 0.611zM19.098 3.186c-0.192-0.23-0.396-0.455-0.613-0.672-0.216-0.217-0.441-0.42-0.67-0.613-0.153-0.129-0.603-0.234-0.888 0.051s-1.648 1.647-1.648 1.647c0.402 0.288 0.793 0.605 1.155 0.966s0.677 0.752 0.966 1.155c0 0 1.363-1.362 1.647-1.647 0.286-0.286 0.181-0.735 0.051-0.887zM10 2.9c-4.475 0-8.101 3.626-8.101 8.1s3.626 8.101 8.101 8.101c4.473 0 8.1-3.626 8.1-8.101 0-4.473-3.627-8.1-8.1-8.1zM10 17.101c-3.368 0-6.1-2.731-6.1-6.1s2.731-6.1 6.1-6.1c3.369 0 6.101 2.731 6.101 6.1s-2.732 6.1-6.101 6.1z"></path>
</symbol>
</defs>
</svg>
